{
    "asset": {
        "copyright": "(C)2023 Admin",
        "generator": "maya2glTF main fbbc95e5dc4d",
        "version": "2.0"
    },
    "scenes": [
        {
            "nodes": [
                0
            ]
        }
    ],
    "scene": 0,
    "nodes": [
        {
            "name": "pSphere1",
            "children": [
                5,
                4,
                3,
                2,
                1
            ]
        },
        {
            "name": "pTorus1",
            "mesh": 0,
            "translation": [
                13.73350429534912,
                0.0,
                0.0
            ]
        },
        {
            "name": "pSphereShape1",
            "mesh": 1
        },
        {
            "name": "pPipe1",
            "mesh": 2,
            "translation": [
                10.520517349243164,
                0.0,
                0.0
            ],
            "rotation": [
                0.0,
                0.0,
                -0.7071067690849304,
                0.7071067690849304
            ]
        },
        {
            "name": "pCylinder1",
            "mesh": 3,
            "translation": [
                6.704162120819092,
                0.0,
                0.0
            ],
            "rotation": [
                0.0,
                0.7071067690849304,
                0.0,
                0.7071067690849304
            ]
        },
        {
            "name": "pCube1",
            "mesh": 4,
            "translation": [
                3.681408643722534,
                0.0,
                0.0
            ],
            "rotation": [
                0.0,
                0.0,
                0.7071067690849304,
                0.7071067690849304
            ]
        }
    ],
    "meshes": [
        {
            "name": "pTorusShape1",
            "extras": {
                "targetNames": []
            },
            "primitives": [
                {
                    "attributes": {
                        "NORMAL": 1,
                        "POSITION": 2,
                        "TANGENT": 3,
                        "TEXCOORD_0": 4
                    },
                    "indices": 0,
                    "mode": 4,
                    "material": 0
                }
            ]
        },
        {
            "name": "pSphereShape1",
            "extras": {
                "targetNames": []
            },
            "primitives": [
                {
                    "attributes": {
                        "NORMAL": 6,
                        "POSITION": 7,
                        "TANGENT": 8,
                        "TEXCOORD_0": 9
                    },
                    "indices": 5,
                    "mode": 4,
                    "material": 0
                }
            ]
        },
        {
            "name": "pPipeShape1",
            "extras": {
                "targetNames": []
            },
            "primitives": [
                {
                    "attributes": {
                        "NORMAL": 11,
                        "POSITION": 12,
                        "TANGENT": 13,
                        "TEXCOORD_0": 14
                    },
                    "indices": 10,
                    "mode": 4,
                    "material": 0
                }
            ]
        },
        {
            "name": "pCylinderShape1",
            "extras": {
                "targetNames": []
            },
            "primitives": [
                {
                    "attributes": {
                        "NORMAL": 16,
                        "POSITION": 17,
                        "TANGENT": 18,
                        "TEXCOORD_0": 19
                    },
                    "indices": 15,
                    "mode": 4,
                    "material": 0
                }
            ]
        },
        {
            "name": "pCubeShape1",
            "extras": {
                "targetNames": []
            },
            "primitives": [
                {
                    "attributes": {
                        "NORMAL": 21,
                        "POSITION": 22,
                        "TANGENT": 23,
                        "TEXCOORD_0": 24
                    },
                    "indices": 20,
                    "mode": 4,
                    "material": 0
                }
            ]
        }
    ],
    "materials": [
        {
            "name": "lambert1",
            "pbrMetallicRoughness": {
                "baseColorFactor": [
                    0.4000000059604645,
                    0.4000000059604645,
                    0.4000000059604645,
                    1.0
                ],
                "metallicFactor": 0.0,
                "roughnessFactor": 1.0
            }
        }
    ],
    "accessors": [
        {
            "name": "pTorusShape1#0/indices",
            "bufferView": 0,
            "byteOffset": 0,
            "componentType": 5123,
            "count": 2400,
            "max": [
                440
            ],
            "min": [
                0
            ],
            "type": "SCALAR"
        },
        {
            "name": "pTorusShape1#0/vertices/NORMAL",
            "bufferView": 1,
            "byteOffset": 0,
            "componentType": 5126,
            "count": 441,
            "max": [
                1.0,
                0.9996175169944764,
                1.0
            ],
            "min": [
                -1.0,
                -0.9996175765991212,
                -1.0
            ],
            "type": "VEC3"
        },
        {
            "name": "pTorusShape1#0/vertices/POSITION",
            "bufferView": 1,
            "byteOffset": 5292,
            "componentType": 5126,
            "count": 441,
            "max": [
                1.5000001192092896,
                0.5000000596046448,
                1.5000003576278689
            ],
            "min": [
                -1.5000004768371585,
                -0.5000002384185791,
                -1.5000008344650269
            ],
            "type": "VEC3"
        },
        {
            "name": "pTorusShape1#0/vertices/TANGENT",
            "bufferView": 2,
            "byteOffset": 0,
            "componentType": 5126,
            "count": 441,
            "max": [
                1.0,
                0.07592408359050751,
                1.0,
                1.0
            ],
            "min": [
                -1.0,
                -0.07592402398586273,
                -1.0,
                1.0
            ],
            "type": "VEC4"
        },
        {
            "name": "pTorusShape1#0/vertices/TEXCOORD_0",
            "bufferView": 3,
            "byteOffset": 0,
            "componentType": 5126,
            "count": 441,
            "max": [
                1.0000001192092896,
                1.0000001192092896
            ],
            "min": [
                0.0,
                0.0
            ],
            "type": "VEC2"
        },
        {
            "name": "pSphereShape1#0/indices",
            "bufferView": 0,
            "byteOffset": 4800,
            "componentType": 5123,
            "count": 2280,
            "max": [
                438
            ],
            "min": [
                0
            ],
            "type": "SCALAR"
        },
        {
            "name": "pSphereShape1#0/vertices/NORMAL",
            "bufferView": 1,
            "byteOffset": 10584,
            "componentType": 5126,
            "count": 439,
            "max": [
                1.0,
                1.0,
                1.0
            ],
            "min": [
                -1.0,
                -1.0,
                -1.0
            ],
            "type": "VEC3"
        },
        {
            "name": "pSphereShape1#0/vertices/POSITION",
            "bufferView": 1,
            "byteOffset": 15852,
            "componentType": 5126,
            "count": 439,
            "max": [
                1.0,
                1.0,
                1.0000001192092896
            ],
            "min": [
                -1.000000238418579,
                -1.0,
                -1.0000004768371585
            ],
            "type": "VEC3"
        },
        {
            "name": "pSphereShape1#0/vertices/TANGENT",
            "bufferView": 2,
            "byteOffset": 7056,
            "componentType": 5126,
            "count": 439,
            "max": [
                1.0,
                0.07869059592485428,
                1.0,
                1.0
            ],
            "min": [
                -1.0,
                -0.07869064807891846,
                -1.0,
                1.0
            ],
            "type": "VEC4"
        },
        {
            "name": "pSphereShape1#0/vertices/TEXCOORD_0",
            "bufferView": 3,
            "byteOffset": 3528,
            "componentType": 5126,
            "count": 439,
            "max": [
                1.0000001192092896,
                1.0
            ],
            "min": [
                0.0,
                0.0
            ],
            "type": "VEC2"
        },
        {
            "name": "pPipeShape1#0/indices",
            "bufferView": 0,
            "byteOffset": 9360,
            "componentType": 5123,
            "count": 480,
            "max": [
                167
            ],
            "min": [
                0
            ],
            "type": "SCALAR"
        },
        {
            "name": "pPipeShape1#0/vertices/NORMAL",
            "bufferView": 1,
            "byteOffset": 21120,
            "componentType": 5126,
            "count": 168,
            "max": [
                1.0,
                1.0,
                1.0
            ],
            "min": [
                -1.0,
                -1.0,
                -1.0
            ],
            "type": "VEC3"
        },
        {
            "name": "pPipeShape1#0/vertices/POSITION",
            "bufferView": 1,
            "byteOffset": 23136,
            "componentType": 5126,
            "count": 168,
            "max": [
                1.0,
                0.5,
                1.0000004768371585
            ],
            "min": [
                -1.000000238418579,
                -0.5,
                -1.0000001192092896
            ],
            "type": "VEC3"
        },
        {
            "name": "pPipeShape1#0/vertices/TANGENT",
            "bufferView": 2,
            "byteOffset": 14080,
            "componentType": 5126,
            "count": 168,
            "max": [
                5.400000091526636e-8,
                1.0,
                1.0,
                1.0
            ],
            "min": [
                -6.39999981899564e-8,
                -1.0,
                -1.0,
                1.0
            ],
            "type": "VEC4"
        },
        {
            "name": "pPipeShape1#0/vertices/TEXCOORD_0",
            "bufferView": 3,
            "byteOffset": 7040,
            "componentType": 5126,
            "count": 168,
            "max": [
                1.0000001192092896,
                1.0
            ],
            "min": [
                0.0,
                0.0
            ],
            "type": "VEC2"
        },
        {
            "name": "pCylinderShape1#0/indices",
            "bufferView": 0,
            "byteOffset": 10320,
            "componentType": 5123,
            "count": 240,
            "max": [
                83
            ],
            "min": [
                0
            ],
            "type": "SCALAR"
        },
        {
            "name": "pCylinderShape1#0/vertices/NORMAL",
            "bufferView": 1,
            "byteOffset": 25152,
            "componentType": 5126,
            "count": 84,
            "max": [
                1.0,
                1.0,
                1.0
            ],
            "min": [
                -1.0,
                -1.0,
                -1.0
            ],
            "type": "VEC3"
        },
        {
            "name": "pCylinderShape1#0/vertices/POSITION",
            "bufferView": 1,
            "byteOffset": 26160,
            "componentType": 5126,
            "count": 84,
            "max": [
                1.0,
                1.0,
                1.0000001192092896
            ],
            "min": [
                -1.000000238418579,
                -1.0,
                -1.0000004768371585
            ],
            "type": "VEC3"
        },
        {
            "name": "pCylinderShape1#0/vertices/TANGENT",
            "bufferView": 2,
            "byteOffset": 16768,
            "componentType": 5126,
            "count": 84,
            "max": [
                1.0,
                0.0,
                1.0,
                1.0
            ],
            "min": [
                -1.0,
                0.0,
                -1.0,
                1.0
            ],
            "type": "VEC4"
        },
        {
            "name": "pCylinderShape1#0/vertices/TEXCOORD_0",
            "bufferView": 3,
            "byteOffset": 8384,
            "componentType": 5126,
            "count": 84,
            "max": [
                0.65625,
                1.0000001192092896
            ],
            "min": [
                0.3437499701976776,
                0.0
            ],
            "type": "VEC2"
        },
        {
            "name": "pCubeShape1#0/indices",
            "bufferView": 0,
            "byteOffset": 10800,
            "componentType": 5123,
            "count": 36,
            "max": [
                23
            ],
            "min": [
                0
            ],
            "type": "SCALAR"
        },
        {
            "name": "pCubeShape1#0/vertices/NORMAL",
            "bufferView": 1,
            "byteOffset": 27168,
            "componentType": 5126,
            "count": 24,
            "max": [
                1.0,
                1.0,
                1.0
            ],
            "min": [
                -1.0,
                -1.0,
                -1.0
            ],
            "type": "VEC3"
        },
        {
            "name": "pCubeShape1#0/vertices/POSITION",
            "bufferView": 1,
            "byteOffset": 27456,
            "componentType": 5126,
            "count": 24,
            "max": [
                0.5,
                0.5,
                0.5
            ],
            "min": [
                -0.5,
                -0.5,
                -0.5
            ],
            "type": "VEC3"
        },
        {
            "name": "pCubeShape1#0/vertices/TANGENT",
            "bufferView": 2,
            "byteOffset": 18112,
            "componentType": 5126,
            "count": 24,
            "max": [
                0.0,
                1.0,
                1.0,
                1.0
            ],
            "min": [
                0.0,
                0.0,
                -1.0,
                1.0
            ],
            "type": "VEC4"
        },
        {
            "name": "pCubeShape1#0/vertices/TEXCOORD_0",
            "bufferView": 3,
            "byteOffset": 9056,
            "componentType": 5126,
            "count": 24,
            "max": [
                0.875,
                1.0
            ],
            "min": [
                0.125,
                0.0
            ],
            "type": "VEC2"
        }
    ],
    "bufferViews": [
        {
            "name": "untitled/data/indices-2",
            "buffer": 0,
            "byteOffset": 55488,
            "byteLength": 10872,
            "target": 34963
        },
        {
            "name": "untitled/data/vertices-12",
            "buffer": 0,
            "byteOffset": 18496,
            "byteLength": 27744,
            "byteStride": 12,
            "target": 34962
        },
        {
            "name": "untitled/data/vertices-16",
            "buffer": 0,
            "byteOffset": 0,
            "byteLength": 18496,
            "byteStride": 16,
            "target": 34962
        },
        {
            "name": "untitled/data/vertices-8",
            "buffer": 0,
            "byteOffset": 46240,
            "byteLength": 9248,
            "byteStride": 8,
            "target": 34962
        }
    ],
    "buffers": [
        {
            "name": "untitled/data",
            "byteLength": 66360,
            "uri": "untitled0.bin"
        }
    ]
}
